PathFileType	4	(X/Y/Z)	c:/Users/goper/Files/vsCode/490R/osim_files/C03/C03_ROM.trc
DataRate	CameraRate	NumFrames	NumMarkers	Units                	OrigDataRate	OrigDataStartFrame	OrigNumFrames
250.00	250.00	10	36	mm	250.0	457	3653
                Frame#	Time	LPSIS			LASIS			LTH1			LTH2			LTH3			LTH4			LLFE			LMFE			LSH1			LSH2			LSH3			LSH4			LLMAL			LMMAL			LCAL			LMTP5			LTOE			LMTP1			RPSIS			RASIS			RTH1			RTH2			RTH3			RTH4			RLFE			RMFE			RSH1			RSH2			RSH3			RSH4			RLMAL			RMMAL			RCAL			RMTP1			RTOE			RMTP5		
		X1	Y1	Z1	X2	Y2	Z2	X3	Y3	Z3	X4	Y4	Z4	X5	Y5	Z5	X6	Y6	Z6	X7	Y7	Z7	X8	Y8	Z8	X9	Y9	Z9	X10	Y10	Z10	X11	Y11	Z11	X12	Y12	Z12	X13	Y13	Z13	X14	Y14	Z14	X15	Y15	Z15	X16	Y16	Z16	X17	Y17	Z17	X18	Y18	Z18	X19	Y19	Z19	X20	Y20	Z20	X21	Y21	Z21	X22	Y22	Z22	X23	Y23	Z23	X24	Y24	Z24	X25	Y25	Z25	X26	Y26	Z26	X27	Y27	Z27	X28	Y28	Z28	X29	Y29	Z29	X30	Y30	Z30	X31	Y31	Z31	X32	Y32	Z32	X33	Y33	Z33	X34	Y34	Z34	X35	Y35	Z35	X36	Y36	Z36

457	1.82400	-456.03348	1053.37292	349.36063	-294.64178	955.13971	330.72861	-421.34311	630.57660	239.55113	-417.50861	568.42145	240.98912	-345.99240	630.04413	240.15912	-351.06741	568.69122	241.81241	-392.71295	485.17508	242.01802	-390.80048	467.58929	353.10870	-444.32391	303.06219	220.49130	-433.88611	257.79395	218.63390	-385.07639	314.52579	209.49733	-383.17844	266.21045	208.30048	-369.28934	99.98524	216.14662	-343.64459	106.56274	292.12137	-430.04666	62.55600	256.59140	-237.56633	51.38268	171.03049	-200.18288	69.49637	220.16570	-217.59436	56.58579	262.45767	-465.44659	1045.79285	460.74374	-314.51459	965.38342	531.53534	-458.63376	606.09369	580.06036	-455.81442	544.07428	578.30444	-403.07867	612.68048	613.22394	-391.61569	552.02991	619.14703	-384.04114	485.96405	613.44299	-375.62885	478.64227	499.33118	-457.94742	298.64008	639.25043	-448.17416	252.89622	648.78137	-400.60529	306.29050	664.76593	-401.65280	262.93671	670.05194	-380.20850	104.08588	679.58099	-348.85406	101.81573	604.56891	-438.53790	62.20426	637.35797	-230.94102	45.35468	625.85358	-209.54683	71.84734	676.45679	-268.48395	37.76000	730.27301
458	1.82800	-456.08960	1053.35107	350.40985	-294.61954	954.58081	332.04739	-422.17859	630.31067	241.00851	-417.59586	568.36719	241.86130	-346.09402	629.98981	241.12267	-351.24966	568.60065	242.80098	-392.77158	485.12598	242.80588	-390.88678	467.34357	353.75516	-444.37927	303.10425	220.99191	-433.93311	257.83133	219.04428	-385.16913	314.56689	209.97441	-383.15146	266.27759	208.74181	-369.28229	100.00513	216.21361	-343.64526	106.50682	292.18643	-430.07315	62.58073	256.59015	-237.54655	51.36623	171.04861	-200.20078	69.50882	220.17513	-217.58899	56.59105	262.44669	-465.40775	1046.05310	461.78177	-314.83054	965.46667	532.91693	-459.01132	606.21252	580.99957	-456.35626	544.20221	579.15472	-403.53308	612.73663	614.25696	-392.13171	552.07404	620.01318	-384.49942	485.99792	614.18738	-376.06378	478.78955	500.08228	-458.22241	298.56702	639.73999	-448.47803	252.86369	649.20850	-400.84393	306.23557	665.21460	-401.92148	262.84283	670.40021	-380.34949	104.01021	679.69891	-348.93259	101.86234	604.69653	-438.58643	62.17374	637.36444	-230.75896	45.75138	625.62262	-209.64114	71.94788	676.53754	-268.51361	37.73751	730.29584
459	1.83200	-455.93631	1053.30835	351.58936	-294.75299	954.46478	333.52402	-422.27176	630.27014	241.98637	-418.13870	568.16180	243.00549	-346.28625	629.90918	242.14276	-351.34644	568.47961	243.68735	-392.92282	485.09305	243.57811	-391.01624	467.09619	354.57587	-444.43735	303.15186	221.43877	-433.95602	257.87469	219.45099	-385.24976	314.61035	210.44989	-383.21570	266.41678	209.23346	-369.27792	100.03236	216.28860	-343.66553	106.45705	292.27023	-430.13385	62.60923	256.60333	-237.61108	51.41288	171.05203	-200.20461	69.51727	220.19562	-217.63928	56.55978	262.46002	-465.55417	1046.31897	462.88071	-315.05588	965.70801	534.28003	-459.50391	606.37775	581.95172	-456.79764	544.39728	580.07886	-404.04788	612.77155	615.27734	-392.70087	552.11609	620.95209	-384.95740	486.08463	615.00647	-376.44711	478.97418	500.83585	-458.54077	298.56113	640.25708	-448.65005	252.87776	649.22821	-401.20026	306.17029	665.73407	-402.23206	262.77069	670.85358	-380.48837	103.96266	679.82513	-349.01065	101.93229	604.84387	-438.60379	62.16018	637.39062	-231.00470	45.51453	625.95837	-209.60696	72.02449	676.61206	-268.57230	37.73357	730.34290
460	1.83600	-455.89233	1053.33789	352.57782	-294.79083	954.13306	334.99228	-422.37332	630.15570	243.03670	-417.74731	568.20544	243.74937	-346.25839	629.88953	243.13834	-351.48297	568.42938	244.64072	-392.99670	485.09653	244.38388	-391.03043	467.00751	355.35345	-444.47513	303.18204	221.85991	-433.98602	257.88425	219.87962	-385.29407	314.69675	210.92395	-383.25095	266.47748	209.62096	-369.26852	100.04317	216.37361	-343.68066	106.42522	292.32440	-430.15707	62.61507	256.58783	-237.62204	51.43136	171.04037	-200.20587	69.54061	220.18994	-217.48590	56.70516	262.55728	-465.62079	1046.57751	464.11194	-315.20804	965.94507	535.66986	-459.95276	606.54199	583.01080	-457.17737	544.50531	581.00757	-404.41241	612.84973	616.31549	-392.99347	552.17682	621.87524	-385.28543	486.09781	615.84308	-376.79279	479.21313	501.61237	-458.78867	298.57529	640.68048	-448.92685	252.87437	649.66577	-401.55771	306.11847	666.24683	-402.46759	262.68442	671.26984	-380.62939	103.91540	679.96857	-349.07916	102.01495	604.97321	-438.64188	62.12448	637.40930	-230.78355	45.97658	625.71387	-209.75433	72.13711	676.67371	-268.61789	37.73246	730.36243
461	1.84000	-455.77521	1053.28638	353.85635	-294.74384	953.89185	336.46765	-422.39273	630.09570	243.99768	-417.90674	568.16650	244.67424	-346.40158	629.78796	244.15770	-351.49847	568.40192	245.54256	-392.97693	485.10352	245.17908	-391.03705	466.74722	356.01083	-444.54654	303.25894	222.38353	-434.06125	257.92355	220.25235	-385.34030	314.78448	211.45842	-383.41309	266.45279	209.88014	-369.26520	100.07150	216.45576	-343.67035	106.36913	292.38492	-430.13361	62.58233	256.59381	-237.54073	51.41447	171.06725	-200.20799	69.53208	220.19463	-217.46959	56.69467	262.55032	-465.68723	1046.68945	465.18390	-315.44089	966.02765	537.06647	-460.21655	606.62445	584.12238	-457.51355	544.57819	581.94330	-404.76990	612.89563	617.35162	-393.36554	552.18420	622.88953	-385.68460	486.12375	616.68390	-377.24069	479.41678	502.45938	-459.05148	298.51624	641.17285	-449.09412	252.81847	650.03339	-401.69797	306.05200	666.71667	-402.58646	262.60352	671.72430	-380.70782	103.84640	680.08948	-349.15164	102.09210	605.11200	-438.64423	62.07272	637.43219	-230.80978	46.05332	625.74194	-209.79884	72.19619	676.73132	-268.62671	37.71471	730.41187
462	1.84400	-455.63177	1053.24280	354.91315	-294.53436	953.41620	337.89188	-422.55225	629.99207	245.13097	-418.32300	567.90302	245.93140	-346.47781	629.71625	245.22585	-351.57883	568.34924	246.55544	-393.02692	485.05353	246.05220	-391.00757	466.50653	356.95651	-444.47708	303.27823	222.88817	-434.11218	257.98166	220.60425	-385.36795	314.86166	211.97079	-383.30557	266.63730	210.38672	-369.24854	100.10740	216.51646	-343.62204	106.32948	292.47391	-430.02478	62.53056	256.60779	-237.54608	51.40102	171.08243	-200.17209	69.55864	220.20827	-217.62013	56.54857	262.46182	-465.52530	1046.83435	466.37360	-315.60477	966.17743	538.51349	-460.42563	606.67145	585.10223	-457.77994	544.64630	582.87543	-405.03757	612.92047	618.47980	-393.72253	552.22314	623.87842	-385.93805	486.14883	617.51068	-377.56406	479.64859	503.19446	-459.27145	298.49411	641.83942	-449.37708	252.70525	650.87512	-401.85541	306.00653	667.26459	-402.72577	262.57559	672.12347	-380.76846	103.75385	680.24109	-349.22171	102.13884	605.26703	-438.63507	62.02549	637.44409	-230.83081	46.09266	625.75903	-209.79967	72.22482	676.78540	-268.60751	37.67805	730.45447
463	1.84800	-455.40549	1053.24280	356.13779	-294.68686	953.28766	339.41550	-422.62442	629.96490	246.18187	-418.01920	567.99017	246.63007	-346.76474	629.67737	246.25381	-351.63077	568.27222	247.51030	-392.94522	485.02917	246.84703	-390.94498	466.29129	357.73944	-444.52383	303.33044	223.37358	-434.20349	258.05060	221.04774	-385.39606	314.93991	212.43533	-383.32220	266.74805	210.79610	-369.24686	100.15770	216.58923	-343.57846	106.26744	292.54407	-429.99857	62.50981	256.62674	-237.53954	51.41154	171.09167	-200.15314	69.53895	220.22174	-217.44199	56.64231	262.58273	-465.40414	1047.10889	467.60117	-315.60376	966.41766	539.89081	-460.61902	606.79553	586.25427	-458.05380	544.80054	583.89264	-405.27100	612.99860	619.59583	-393.91370	552.29407	624.86383	-386.13571	486.23248	618.39514	-377.92984	479.81839	504.05350	-459.32767	298.45810	642.37347	-449.46970	252.61400	651.37683	-402.00842	305.93021	667.81702	-402.84534	262.49643	672.61481	-380.82269	103.68285	680.38385	-349.26334	102.20931	605.40491	-438.64807	62.00771	637.47540	-230.83112	46.12383	625.79364	-209.80635	72.25652	676.85602	-268.58276	37.64361	730.49506
464	1.85200	-455.22433	1053.24500	357.34659	-294.70349	952.93640	340.99698	-422.68448	629.94299	247.26135	-417.97232	567.92700	247.63081	-346.56821	629.61383	247.33083	-351.68887	568.19922	248.45729	-392.97577	485.02371	247.65506	-390.98074	466.03238	358.49380	-444.56631	303.41162	223.87958	-434.14777	258.10599	221.49403	-385.37708	314.99225	212.93040	-383.47235	266.74963	211.12753	-369.22968	100.18593	216.65257	-343.57147	106.20076	292.62390	-429.94601	62.48351	256.66116	-237.53204	51.40170	171.08514	-200.14212	69.52272	220.22577	-217.63318	56.48851	262.48486	-465.47845	1047.32202	468.86969	-315.71143	966.59406	541.36255	-460.89258	606.99377	587.43512	-458.19443	544.87000	584.92975	-405.47791	613.05847	620.72424	-394.10831	552.34302	625.92322	-386.43866	486.27444	619.20740	-378.28638	480.05478	504.89066	-459.45367	298.40457	642.96588	-449.52563	252.52074	651.96442	-402.12686	305.87320	668.37024	-402.99429	262.45517	673.11182	-380.88589	103.59164	680.52759	-349.31332	102.26153	605.51617	-438.66299	61.96169	637.50031	-230.87267	46.15999	625.80115	-209.82663	72.26590	676.90460	-268.58743	37.61840	730.54010
465	1.85600	-455.23175	1053.16833	358.56461	-294.40479	952.56445	342.43851	-422.70334	629.90594	248.39337	-418.05771	567.94080	248.57648	-346.58279	629.57751	248.36688	-351.68597	568.11151	249.44182	-392.99680	485.00323	248.51190	-390.94287	465.80933	359.44061	-444.56555	303.41434	224.40366	-434.14941	258.16278	221.91138	-385.37241	315.06076	213.43633	-383.39084	266.92264	211.64316	-369.22900	100.24554	216.71663	-343.56387	106.16366	292.70920	-429.96167	62.49741	256.66809	-237.57059	51.40500	171.09605	-200.20230	69.50176	220.24911	-217.64600	56.45976	262.52744	-465.39529	1047.41357	470.01379	-315.87326	966.78534	542.83655	-461.03531	607.07874	588.59155	-458.51297	544.96252	585.95331	-405.70172	613.14288	621.87640	-394.38187	552.41412	626.97333	-386.72461	486.31165	620.11237	-378.61166	480.24384	505.70020	-459.68750	298.37424	643.58783	-449.63123	252.47729	652.49457	-402.27853	305.79214	668.92999	-403.11249	262.37671	673.58600	-380.95685	103.52707	680.65283	-349.36929	102.31715	605.62720	-438.66693	61.94094	637.52026	-230.89912	46.17449	625.82117	-209.83972	72.28613	676.97064	-268.59277	37.59119	730.58832
466	1.86000	-454.98239	1053.06689	359.81540	-294.50330	952.45844	344.02505	-421.93546	629.92920	249.03021	-418.10693	567.85089	249.69554	-346.69446	629.47369	249.41855	-351.75134	568.10272	250.44992	-393.01538	484.96411	249.35359	-390.95496	465.60928	360.13190	-444.54630	303.51038	224.92896	-434.15427	258.24539	222.30011	-385.38934	315.16769	213.96248	-383.45151	266.92261	211.94020	-369.22028	100.30548	216.77351	-343.58780	106.13126	292.77402	-429.95609	62.48856	256.67181	-237.54454	51.41899	171.08871	-200.20676	69.49368	220.26787	-217.66151	56.44302	262.52774	-465.39291	1047.60950	471.29739	-315.91858	966.99487	544.35504	-461.23157	607.21631	589.69946	-458.72461	545.13507	586.97113	-405.90424	613.22791	623.05469	-394.63699	552.49097	627.96490	-386.94836	486.35971	621.03625	-378.88937	480.48492	506.55753	-459.74881	298.35977	644.20361	-449.77487	252.44240	652.91364	-402.43875	305.73602	669.54254	-403.20691	262.32733	674.07916	-381.04123	103.45593	680.76721	-349.42184	102.39692	605.74799	-438.71078	61.93411	637.55286	-230.95853	46.20086	625.81097	-209.88051	72.30221	677.01746	-268.61258	37.57041	730.61920
